PathFileType	4	(X/Y/Z)	C:\Users\Basilio\Documents\Thesis Gigler\squatting_fais\c3dfiles\040\SLS_pre_back1\markers_experimental.trc
DataRate	CameraRate	NumFrames	NumMarkers	Units	OrigDataRate	OrigDataStartFrame	OrigNumFrames
200.000000	200.000000	4	64	mm	200.000000	134	1073
Frame#	Time	FHD			LBHD			RBHD			C7			T10			CLAV			LSHO			LUUPA			LMUPA			LDUPA			LLEP			LMEP			LRAD			LUL			LRFIN			RSHO			RUPA1			RMUPA			RDUPA			RLEP			RMEP			RRAD			RUL			RUFIN			LASI			RASI			USACR			LSACR			RSACR			LTHI1			LTHI2			LTHI3			LTHI4			LLFC			LMFC			LTIB1			LTIB2			LTIB3			LTIB4			LLMAL			LMMAL			LHEE			LMT1			LMT2			LMT5			RTHI			RTHI2			RTHI3			RTHI4			RLFC			RMFC			RTIB1			RTIB2			RTIB3			RTIB4			RLMAL			RMMAL			RHEE			RMT1			RMT2			RMT5			*61			*62			*63			
		X1	Y1	Z1	X2	Y2	Z2	X3	Y3	Z3	X4	Y4	Z4	X5	Y5	Z5	X6	Y6	Z6	X7	Y7	Z7	X8	Y8	Z8	X9	Y9	Z9	X10	Y10	Z10	X11	Y11	Z11	X12	Y12	Z12	X13	Y13	Z13	X14	Y14	Z14	X15	Y15	Z15	X16	Y16	Z16	X17	Y17	Z17	X18	Y18	Z18	X19	Y19	Z19	X20	Y20	Z20	X21	Y21	Z21	X22	Y22	Z22	X23	Y23	Z23	X24	Y24	Z24	X25	Y25	Z25	X26	Y26	Z26	X27	Y27	Z27	X28	Y28	Z28	X29	Y29	Z29	X30	Y30	Z30	X31	Y31	Z31	X32	Y32	Z32	X33	Y33	Z33	X34	Y34	Z34	X35	Y35	Z35	X36	Y36	Z36	X37	Y37	Z37	X38	Y38	Z38	X39	Y39	Z39	X40	Y40	Z40	X41	Y41	Z41	X42	Y42	Z42	X43	Y43	Z43	X44	Y44	Z44	X45	Y45	Z45	X46	Y46	Z46	X47	Y47	Z47	X48	Y48	Z48	X49	Y49	Z49	X50	Y50	Z50	X51	Y51	Z51	X52	Y52	Z52	X53	Y53	Z53	X54	Y54	Z54	X55	Y55	Z55	X56	Y56	Z56	X57	Y57	Z57	X58	Y58	Z58	X59	Y59	Z59	X60	Y60	Z60	X61	Y61	Z61	X62	Y62	Z62	X63	Y63	Z63	X64	Y64	Z64	

135	0.67	-120.5074081420899	1767.412475585938	-1243.847290039063	-247.5017242431641	1722.654174804688	-1284.088134765625	-302.8537292480469	1692.040893554688	-1151.647583007813	-323.7804565429688	1569.120849609375	-1197.880493164063	-375.5156860351563	1255.441162109375	-1175.473876953125	-200.9754180908204	1489.307250976563	-1197.427856445313	-251.8707427978516	1543.37109375	-1346.81591796875	-107.2447052001953	1441.884765625	-1414.855590820313	-72.7158660888672	1453.731567382813	-1380.41552734375	-43.81385803222657	1413.207275390625	-1415.471313476563	4.293649196624757	1372.421508789063	-1411.526733398438	-20.62849998474121	1324.185546875	-1372.828491210938	255.8724365234376	1328.572387695313	-1272.061889648438	271.3867492675782	1332.066650390625	-1347.112915039063	350.6695556640626	1319.659790039063	-1262.952880859375	-232.1189422607422	1524.214233398438	-1047.248168945313	-103.7453384399414	1392.680297851563	-990.437438964844	-68.0369110107422	1408.811157226563	-1018.706726074219	-44.81436157226563	1356.583251953125	-999.4162597656252	10.03894329071045	1329.660766601563	-1013.646240234375	-20.55637741088868	1284.846557617188	-1066.24853515625	258.7128906250001	1300.259887695313	-1170.264526367188	270.2287292480469	1273.66015625	-1099.530395507813	346.9802856445313	1302.748779296875	-1180.270751953125	-217.4266967773438	1061.398315429688	-1290.3310546875	-201.7485504150391	1063.118408203125	-1061.507080078125	-391.4788208007814	1124.721313476563	-1163.228149414063	-402.0498962402345	1093.980834960938	-1190.261108398438	-396.6576232910157	1093.507568359375	-1133.371704101563	-321.6630249023438	805.5712890625002	-1331.878051757813	-276.5237121582032	734.1012573242189	-1331.242065429688	-230.6712036132813	741.6257934570314	-1338.791748046875	-291.4954833984376	679.8342285156251	-1314.97705078125	-261.2673034667969	548.7420654296876	-1297.073486328125	-261.5186462402344	542.5828857421876	-1164.5859375	-245.7623138427735	326.0156860351563	-1231.765014648438	-321.8142700195313	294.4028320312501	-1264.536987304688	-279.7063293457032	282.9875793457032	-1252.63671875	-281.1299438476563	207.7285308837891	-1207.572875976563	-357.0755615234376	128.1500549316407	-1210.324096679688	-324.6885070800782	146.9615325927735	-1129.782836914063	-420.0639038085939	99.71839904785159	-1161.156616210938	-208.6227264404297	56.98401641845705	-1129.320922851563	-207.0301818847657	47.99596786499024	-1175.12646484375	-256.5864257812501	33.10479354858399	-1225.49365234375	-250.1664733886719	798.6578369140627	-990.1326293945315	-216.9506072998047	740.8248291015626	-997.0966796875002	-185.9506072998047	742.4260253906251	-1005.102416992188	-248.7878417968751	663.4703979492189	-999.9509887695315	-262.9987182617188	558.9959716796876	-1014.127746582031	-274.5454406738282	549.4631347656251	-1139.30126953125	-409.2056579589845	448.352752685547	-1028.162109375	-502.7632446289064	502.1188049316407	-1010.947387695313	-494.2286071777345	455.2883911132814	-1016.135864257813	-535.3328247070314	423.0204467773439	-1046.42138671875	-662.5759887695314	442.6248779296876	-1028.581420898438	-640.4011230468751	426.3137512207032	-1113.5732421875	-716.7136840820314	491.3509216308595	-1091.63818359375	-667.2035522460939	274.7058105468751	-1090.810668945313	-672.5520629882814	277.1080017089844	-1051.569702148438	-715.6452636718751	311.2331237792969	-1007.103393554688	nan	nan	nan	nan	nan	nan	nan	nan	nan	
136	0.675	-120.2792205810547	1767.406494140625	-1244.071899414063	-247.2922973632813	1722.624389648438	-1284.186401367188	-302.6510925292969	1692.046752929688	-1151.75341796875	-323.5652160644532	1569.1845703125	-1197.975219726563	-375.6363525390626	1255.536865234375	-1175.569702148438	-200.9624328613282	1489.220825195313	-1197.50927734375	-251.7877655029297	1543.444580078125	-1346.915283203125	-107.0665969848633	1442.1279296875	-1415.013427734375	-72.67310333251955	1453.887817382813	-1380.434814453125	-43.21430206298829	1413.210205078125	-1415.529174804688	4.363039016723634	1372.717895507813	-1411.620361328125	-20.43429946899414	1324.242553710938	-1372.962280273438	256.2860717773438	1328.821533203125	-1272.236083984375	271.6198120117188	1332.4619140625	-1347.383666992188	350.8916931152344	1320.0927734375	-1263.15576171875	-231.7589263916016	1524.37255859375	-1047.493896484375	-103.5395889282227	1392.702758789063	-990.5025024414065	-67.82946014404298	1408.85302734375	-1018.813659667969	-44.47336578369141	1356.656372070313	-999.5408325195315	10.12918758392334	1329.697021484375	-1013.671752929688	-20.44121932983399	1285.025024414063	-1066.199951171875	258.8648681640626	1300.559326171875	-1170.3544921875	270.4991149902344	1274.349853515625	-1099.74267578125	347.2279052734376	1303.220458984375	-1180.4365234375	-218.0446929931641	1061.646850585938	-1290.498901367188	-201.8822174072266	1063.047241210938	-1061.642211914063	-391.6253051757814	1124.762573242188	-1163.285278320313	-403.4773864746095	1095.421875	-1190.579467773438	-399.2138977050782	1095.444580078125	-1133.912841796875	-321.7437438964844	805.5374755859377	-1331.921508789063	-276.5317687988282	734.0224609375001	-1331.290161132813	-230.7572631835938	741.6135864257814	-1338.776123046875	-291.4722595214844	679.7785034179689	-1315.070556640625	-261.1904907226563	548.7294311523439	-1297.09814453125	-261.6159057617188	542.5574340820314	-1164.583862304688	-245.7755432128907	325.9832458496094	-1231.692749023438	-321.7841186523438	294.3860473632813	-1264.576049804688	-279.6133117675782	282.9380798339844	-1252.63623046875	-281.0729064941407	207.7537078857422	-1207.543212890625	-357.0928649902344	128.1612243652344	-1210.307250976563	-324.7136230468751	146.9539031982422	-1129.766357421875	-420.0786437988282	99.76684570312503	-1161.121215820313	-208.8033752441407	57.13428497314455	-1129.2978515625	-206.9373779296876	47.89062500000001	-1175.153564453125	-256.5892639160157	33.11241531372071	-1225.5205078125	-250.8990936279297	798.134460449219	-990.6655883789065	-216.9956054687501	740.9655761718751	-997.040466308594	-185.9884948730469	742.5515136718751	-1005.126647949219	-248.8374938964844	663.4728393554689	-999.9368286132815	-263.0740356445313	559.0171508789064	-1014.114624023438	-274.6863403320313	549.5303955078126	-1139.2353515625	-409.3481750488282	448.7936401367189	-1028.356323242188	-502.8287353515626	502.113250732422	-1010.879150390625	-494.342010498047	455.3136596679689	-1015.96044921875	-535.0046997070314	423.6563415527345	-1045.882690429688	-662.7098388671876	442.7853393554689	-1028.465087890625	-640.4154052734376	426.4365844726564	-1113.40478515625	-716.5824584960939	491.2976684570314	-1091.436279296875	-666.9819335937501	274.4441528320313	-1090.630981445313	-672.8189697265626	277.2340393066407	-1051.550170898438	-715.6500854492189	311.2887573242188	-1007.05078125	nan	nan	nan	nan	nan	nan	nan	nan	nan	
137	0.68	-119.9446640014649	1767.394165039063	-1244.321044921875	-247.1933288574219	1722.612670898438	-1284.269287109375	-302.3647460937501	1691.954711914063	-1151.86376953125	-323.3089599609376	1569.181274414063	-1198.092041015625	-375.9861145019532	1255.296020507813	-1175.750610351563	-200.9634094238282	1489.155639648438	-1197.634521484375	-251.7429962158204	1543.475708007813	-1347.003051757813	-107.0028533935547	1442.36865234375	-1415.108032226563	-72.66046142578126	1454.099365234375	-1380.459716796875	-43.52740859985352	1413.61572265625	-1415.705200195313	4.463214397430421	1372.995849609375	-1411.821655273438	-20.24402046203614	1324.378662109375	-1373.190551757813	256.6275024414063	1329.200927734375	-1272.447143554688	272.1106567382813	1332.453125	-1347.513305664063	351.0922241210938	1320.54638671875	-1263.473510742188	-231.4825286865235	1524.322875976563	-1047.681762695313	-103.3148498535157	1392.930786132813	-990.5977783203127	-67.68755340576173	1408.936401367188	-1018.971801757813	-44.25011062622071	1356.9853515625	-999.6962890625002	10.37278079986572	1330.444091796875	-1014.058349609375	-20.35985565185547	1285.056030273438	-1066.199951171875	259.0378112792969	1300.899047851563	-1170.427001953125	270.7341918945313	1274.671752929688	-1099.768432617188	347.5254211425782	1303.834594726563	-1180.745849609375	-218.2099304199219	1061.630249023438	-1290.581420898438	-201.9569091796876	1062.462524414063	-1061.6494140625	-391.8896484375001	1124.833251953125	-1163.388549804688	-402.6913452148439	1094.675903320313	-1190.513427734375	-397.7749023437501	1094.468139648438	-1133.650268554688	-321.9072265625001	805.5029907226565	-1332.008544921875	-276.6134033203126	734.0319213867189	-1331.3798828125	-230.7950897216797	741.6691284179689	-1338.77978515625	-291.5235595703126	679.7438964843751	-1315.096923828125	-261.2127990722657	548.7189331054689	-1297.1181640625	-261.6396789550782	542.5662841796876	-1164.620727539063	-245.7561492919922	325.9465332031251	-1231.754150390625	-321.7316894531251	294.4010009765626	-1264.5703125	-279.5524902343751	282.9453735351563	-1252.665283203125	-281.1109008789063	207.7322540283204	-1207.587524414063	-357.1438903808594	128.157943725586	-1210.313110351563	-324.7127685546876	146.999984741211	-1129.759887695313	-420.0789794921876	99.74619293212893	-1161.123168945313	-208.7568664550782	57.11034774780275	-1129.307006835938	-206.9758453369141	47.85561752319337	-1175.217651367188	-256.6124572753907	33.11172103881837	-1225.554321289063	-250.8470611572266	798.2836914062502	-990.5957031250002	-217.2040557861329	741.0580444335939	-997.089538574219	-186.0778198242188	742.5941162109376	-1005.169738769531	-248.9010772705079	663.6406250000001	-999.882263183594	-263.0768737792969	559.1002807617189	-1013.986999511719	-274.7334289550782	549.6170043945314	-1139.139770507813	-409.3336791992189	448.8562622070314	-1028.21044921875	-502.835418701172	502.1617126464845	-1010.772705078125	-494.5489807128907	455.736297607422	-1015.808654785156	-535.2873535156251	424.2265625000001	-1045.64697265625	-662.6783447265626	442.8028259277345	-1028.231567382813	-640.5623168945314	426.6080627441407	-1113.261352539063	-716.5885620117189	491.3696899414064	-1091.276123046875	-667.0195922851564	274.4826660156251	-1090.597534179688	-672.9058227539064	277.2638854980469	-1051.609741210938	-715.7534790039064	311.3099670410157	-1007.005493164063	nan	nan	nan	nan	nan	nan	nan	nan	nan	
138	0.6850000000000001	-119.7200393676758	1767.2958984375	-1244.430419921875	-246.9454040527344	1722.564453125	-1284.384765625	-302.0793457031251	1691.9462890625	-1152.016357421875	-323.2650146484376	1569.199584960938	-1198.216796875	-375.7482299804688	1255.631713867188	-1175.728393554688	-200.9630737304688	1489.090942382813	-1197.720581054688	-251.6828918457032	1543.540649414063	-1347.1015625	-106.8412246704102	1442.551147460938	-1415.266357421875	-72.47849273681642	1454.186767578125	-1380.61083984375	-43.37535095214844	1413.809692382813	-1415.840942382813	4.673649311065675	1373.124633789063	-1411.95703125	-20.04780578613282	1324.609497070313	-1373.402587890625	257.1964111328126	1329.413452148438	-1272.65625	272.3609313964844	1332.715454101563	-1347.802124023438	351.2233276367188	1320.908325195313	-1263.714965820313	-231.3782806396485	1524.294189453125	-1047.796752929688	-103.2189712524414	1392.838623046875	-990.7922973632815	-67.67490386962892	1408.997924804688	-1019.133239746094	-43.89476013183594	1357.20703125	-999.887634277344	10.84303760528565	1330.953491210938	-1014.168823242188	-20.21564674377442	1284.991943359375	-1066.275024414063	259.0797424316407	1301.182983398438	-1170.546752929688	271.0918884277344	1275.191040039063	-1099.885009765625	347.6388854980469	1304.115356445313	-1180.830810546875	-218.1138610839844	1061.415161132813	-1290.5732421875	-202.1587524414063	1062.922119140625	-1061.734741210938	-391.9335327148439	1124.83837890625	-1163.473754882813	-403.861541748047	1095.549926757813	-1190.81982421875	-399.581756591797	1095.605590820313	-1134.076171875	-321.9960327148438	805.507995605469	-1332.10107421875	-276.6830139160157	734.0622558593751	-1331.46435546875	-230.8446197509766	741.6663818359376	-1338.8310546875	-291.5736083984376	679.7147216796876	-1315.226806640625	-261.1651611328126	548.7240600585939	-1297.193969726563	-261.6431884765626	542.6249389648439	-1164.681518554688	-245.7586517333985	325.9382629394532	-1231.853515625	-321.8071289062501	294.4045715332032	-1264.623657226563	-279.5881042480469	283.0041503906251	-1252.809692382813	-281.1296691894532	207.7279663085938	-1207.632080078125	-357.6325378417969	128.5561828613282	-1210.632080078125	-324.6691894531251	147.0063171386719	-1129.811401367188	-419.8229370117189	99.62882232666018	-1160.905395507813	-208.6687622070313	57.03787994384767	-1129.326538085938	-206.4992065429688	47.17569732666016	-1175.28076171875	-256.6035156250001	33.0908546447754	-1225.545043945313	-251.0064849853516	798.4514770507815	-990.5314941406252	-217.290756225586	741.1920776367189	-997.0056152343752	-186.1992950439453	742.6835327148439	-1005.131713867188	-248.9590759277344	663.6298828125001	-999.8582153320315	-263.1033630371094	559.1197509765626	-1013.89208984375	-274.7370605468751	549.6265258789064	-1139.043212890625	-409.3758544921876	448.8724060058595	-1028.180908203125	-502.8357238769532	502.259246826172	-1010.593811035156	-494.5520324707032	455.7857971191407	-1015.786560058594	-535.2976684570314	424.3021850585939	-1045.566772460938	-663.0581054687501	443.1891174316407	-1028.076904296875	-640.6232299804689	426.7228393554689	-1113.211791992188	-716.7326660156251	491.5955505371095	-1091.083862304688	-667.3985595703126	274.9459838867188	-1090.793701171875	-673.0462646484376	277.0764770507813	-1051.402587890625	-715.7750854492189	311.3367309570313	-1006.892333984375	nan	nan	nan	nan	nan	nan	nan	nan	nan	
